<svg width="57" height="55" viewBox="0 0 57 55" fill="none" xmlns="http://www.w3.org/2000/svg">
<path d="M18.0036 35.5912V53.1046C9.08688 49.6804 1.95018 41.5231 0.490234 31.9678H5.92541C6.95357 36.2102 9.1367 40.2353 12.4159 43.1401L12.4189 22.3822C13.9363 3.93886 40.9733 2.79294 43.6486 21.1925C45.7441 35.6063 29.1065 44.8461 18.0036 35.5897V35.5912ZM24.3099 14.6356C21.1047 15.0764 22.1947 21.8765 25.4664 21.3903C28.4165 20.9525 27.4759 14.1993 24.3099 14.6356ZM33.05 15.1097C31.3575 13.4625 29.2242 15.9566 29.0234 17.7004C28.8875 18.8765 29.1623 20.9676 30.5287 21.3284C33.5452 22.1256 34.904 16.9153 33.05 15.1097ZM19.764 19.7915C19.1087 19.8111 18.4973 20.3667 18.221 20.9374C17.0736 23.3168 20.1354 27.1878 22.0875 25.4078C23.8842 23.7697 22.0709 19.722 19.764 19.7915ZM36.3866 19.7733C33.4591 19.9334 32.2604 25.6011 35.2074 25.8607C38.3342 26.1355 39.5571 19.5997 36.3866 19.7733ZM23.3754 26.6202C22.0377 28.0484 20.0357 29.3136 21.7131 31.6552C23.4056 34.018 26.176 31.8183 28.1946 31.8183C30.2131 31.8183 31.9901 33.6602 33.9936 32.1807C34.8994 31.5133 35.144 30.7222 35.07 29.6201C34.9568 27.9473 33.1662 27.0625 32.1985 25.8487C31.119 24.4929 30.7461 22.7325 28.6339 22.4683C25.6445 22.0939 25.018 24.8628 23.3739 26.6187L23.3754 26.6202Z" fill="white"/>
<path d="M55.7479 23.2112H50.3128C48.7864 15.6729 42.9134 9.06314 35.7057 6.49049C28.0406 3.75629 19.7504 5.35061 13.5543 10.5337C9.6712 13.7812 6.56107 18.7483 5.92546 23.8151H9.69989V29.2503H0.0373444C-0.475978 19.2813 4.33265 10.0234 12.6107 4.6078C29.4462 -6.40448 52.6786 3.31695 55.7479 23.2112Z" fill="white"/>
<path d="M20.5703 48.2733C33.417 53.0653 47.8096 44.594 50.4638 31.3639H44.8776L46.4629 25.7777H55.9745C56.3413 26.4571 56.2462 27.748 56.207 28.5768C55.4143 45.3836 39.1767 57.8981 22.6553 54.4151C21.9804 54.2731 21.135 54.1207 20.5703 53.7825V48.2718V48.2733Z" fill="white"/>
<path d="M46.8403 34.0815C43.075 44.3148 30.639 49.9825 20.5703 45.3293V40.4226C28.5011 43.8679 38.3584 41.4085 43.0659 34.0815H46.8403Z" fill="white"/>
</svg>
